<svg width="24" height="30" viewBox="0 0 24 30" fill="none" xmlns="http://www.w3.org/2000/svg">
<path d="M22.8492 5.37303C22.6331 4.95 22.3487 4.55226 21.9995 4.19833C21.4424 3.6337 20.7806 3.24101 20.0772 3.01852C19.6182 2.87191 19.1426 2.79945 18.667 2.79945C17.4614 2.79945 16.2541 3.2663 15.3345 4.19833L12.0004 7.57755V4.77809C12.0004 2.13876 9.89016 0 7.28606 0C4.68192 0 2.57168 2.13876 2.57168 4.77809V8.91405C2.57168 10.136 3.0323 11.3579 3.95192 12.2916C4.57216 12.9202 5.32216 13.3365 6.11537 13.5405L2.0013 17.7101C1.09337 18.632 0.632749 19.8337 0.622749 21.0405C0.621094 21.0556 0.621094 21.0725 0.621094 21.0876V25.2236C0.621094 26.4455 1.08171 27.6674 2.0013 28.6011C2.92089 29.5348 4.12816 30 5.33544 30C6.3964 30 7.45568 29.6393 8.32372 28.918C8.44178 28.8186 8.55651 28.714 8.66792 28.6011L17.8273 19.3163L21.7367 15.3539L21.9995 15.0876C22.9191 14.1556 23.3797 12.9337 23.3797 11.7118V7.57584C23.3797 6.81743 23.2034 6.06066 22.8492 5.37303ZM4.45909 4.77809C4.45909 3.1972 5.72789 1.91124 7.28771 1.91124C8.84751 1.91124 10.1163 3.1972 10.1163 4.77809C10.1163 6.35899 8.84751 7.64494 7.28771 7.64494C5.72789 7.64494 4.45909 6.35899 4.45909 4.77809ZM21.2163 8.8163C21.0782 9.10953 20.8936 9.37416 20.6659 9.60506L7.33427 23.1168C7.2694 23.1826 7.20289 23.2433 7.12975 23.3039C6.62254 23.7253 5.9873 23.9562 5.33378 23.9562C4.57716 23.9562 3.86709 23.6579 3.3333 23.1168C3.10382 22.8843 2.92089 22.623 2.7862 22.3365C2.60992 21.9674 2.51516 21.5629 2.50516 21.1567V21.0573C2.51182 20.3056 2.80616 19.5961 3.3333 19.0618L16.6649 5.55167C17.1987 5.01066 17.9087 4.71237 18.6637 4.71237C18.9514 4.71237 19.2357 4.75619 19.5068 4.84381C19.9491 4.9837 20.3366 5.22136 20.6625 5.55167C20.8687 5.76066 21.04 5.99662 21.1714 6.25451C21.3809 6.66066 21.4906 7.11743 21.4906 7.57755C21.4906 8.0056 21.3942 8.4337 21.213 8.81798L21.2163 8.8163Z" fill="black"/>
</svg>
